:SAMPLES-PER-SECOND 30
:FRAME-RANGE 1-3358
:FULLY-SPECIFIED
:DEGREES
1575
root  -58.8816 37.2847 -38.6319 3.34863 -48.9506 -2.04602
RightUpLeg  -27.8753 7.00037 -10.3399
RightLeg  24.1842 8.68099 4.03282
RightFoot  -3.07968 -1.37144 18.5454
RightToes  -1.11029e-010 1.2921e-014 -6.02303e-014
Spine  -3.86667 -3.84386 3.15036
Spine1  7.88958 -4.0715 -0.612949
HEad  12.8248 53.9996 -12.0171
LeftShoulder1  1.03773 -0.370214 -22.149
LeftArm  25.007 -1.95963 -56.2131
LeftForeArm  24.6867 -28.6909 -4.8596
LeftHand  0.00529195 5.96251 6.19954
RightShoulder  0.666774 -1.24249 26.0267
RightArm  -33.9945 -22.2849 38.1171
RightForeArm  59.5592 -4.94828 -0.824059
RightHand  0.162262 -7.22105 -11.8151
LeftUpLeg  3.30193 -6.68126 -3.1309
LeftLeg  36.6597 -1.72151 -0.991908
LeftFoot  -21.9605 -0.0915661 -2.40272
LeftToes  -1.90334e-010 -8.83595e-011 4.99953e-011
1576
root  -59.8385 37.3118 -38.2298 4.79248 -45.5939 -3.86627
RightUpLeg  -27.3516 4.87001 -7.99215
RightLeg  27.5314 7.37309 3.9345
RightFoot  -3.49628 -0.94675 13.4013
RightToes  -1.11029e-010 1.2921e-014 -6.02303e-014
Spine  -3.69743 -4.37437 3.80022
Spine1  8.35422 -5.05266 1.24529
HEad  12.9341 54.0565 -12.212
LeftShoulder1  1.17532 -0.925248 -21.6722
LeftArm  26.8835 -1.24855 -58.3997
LeftForeArm  19.976 -23.6507 -4.02453
LeftHand  0.00842136 6.0408 6.09604
RightShoulder  0.618714 -1.42675 26.6333
RightArm  -33.5534 -20.7077 37.9626
RightForeArm  57.9947 -5.06694 -0.432906
RightHand  0.455771 -9.0222 -15.2785
LeftUpLeg  -1.23081 -5.38777 0.694955
LeftLeg  45.9893 -3.52756 -3.48062
LeftFoot  -15.7995 -0.100479 -5.01046
LeftToes  -1.90334e-010 -8.83595e-011 4.99953e-011
1577
root  -60.6512 37.3549 -37.8523 5.22919 -42.6799 -4.62036
RightUpLeg  -26.2849 4.99061 -6.88638
RightLeg  29.5664 4.72284 2.66125
RightFoot  -5.30272 -0.666254 11.9041
RightToes  -1.11029e-010 1.2921e-014 -6.02303e-014
Spine  -2.68204 -4.31534 4.6099
Spine1  8.02845 -5.05284 2.33543
HEad  13.1531 53.0957 -11.1706
LeftShoulder1  1.19146 -1.0514 -21.2105
LeftArm  20.9108 -1.7861 -59.9528
LeftForeArm  25.6876 -17.3265 -7.37111
LeftHand  0.0205947 6.28387 6.15091
RightShoulder  0.581741 -1.57347 27.2878
RightArm  -32.7466 -19.8365 37.9381
RightForeArm  58.3507 -2.24713 0.623494
RightHand  0.170507 -6.78799 -15.6207
LeftUpLeg  -6.33836 -4.50623 2.85084
LeftLeg  54.3981 -2.52086 -3.28736
LeftFoot  -10.717 0.101408 -6.83223
LeftToes  -1.90334e-010 -8.83595e-011 4.99953e-011
1578
root  -61.4065 37.5599 -37.3962 4.77362 -40.0784 -4.40942
RightUpLeg  -24.0724 3.62338 -6.3615
RightLeg  29.9047 3.65959 2.03829
RightFoot  -6.72675 -0.495364 11.1218
RightToes  -1.11029e-010 1.2921e-014 -6.02303e-014
Spine  -1.77865 -3.93715 5.3341
Spine1  7.63094 -4.50701 1.92341
HEad  12.3944 52.1709 -10.7809
LeftShoulder1  1.18046 -0.968497 -21.5011
LeftArm  8.90141 -2.99886 -60.2271
LeftForeArm  35.6607 -10.0653 -11.1091
LeftHand  0.0413858 6.66346 6.34264
RightShoulder  0.643706 -1.38024 27.1736
RightArm  -31.4191 -18.8492 38.3056
RightForeArm  57.1238 1.57228 2.11997
RightHand  0.297454 -7.33674 -18.5623
LeftUpLeg  -10.4297 -3.28226 3.53889
LeftLeg  59.7734 0.462829 1.44034
LeftFoot  -11.7743 0.0475077 -6.08105
LeftToes  -1.90334e-010 -8.83595e-011 4.99953e-011
1579
root  -62.0593 37.8676 -36.917 4.21936 -37.1881 -3.20142
RightUpLeg  -21.8753 1.45207 -6.85101
RightLeg  29.1089 3.08043 1.62224
RightFoot  -7.63439 -0.401363 10.7635
RightToes  -1.11029e-010 1.2921e-014 -6.02303e-014
Spine  -1.89334 -3.44247 5.59853
Spine1  7.90624 -3.80589 0.91998
HEad  10.9399 51.2423 -10.7546
LeftShoulder1  1.14959 -0.824338 -21.7309
LeftArm  1.3471 -3.94607 -60.223
LeftForeArm  38.2832 -4.63896 -12.0811
LeftHand  0.0621924 6.93885 6.81568
RightShoulder  0.757846 -1.00647 26.7474
RightArm  -30.0111 -17.499 38.5713
RightForeArm  57.2261 4.84858 3.39271
RightHand  0.159919 -6.37729 -20.076
LeftUpLeg  -14.528 -2.13866 3.0979
LeftLeg  61.6607 2.13666 4.91515
LeftFoot  -12.8727 0.00521319 -5.37584
LeftToes  -1.90334e-010 -8.83595e-011 4.99953e-011
1580
root  -62.6052 38.1661 -36.4579 3.95129 -34.3547 -2.198
RightUpLeg  -19.6924 -0.571455 -7.33618
RightLeg  27.7721 2.34785 1.11035
RightFoot  -8.16556 -0.351081 10.6271
RightToes  -1.11029e-010 1.2921e-014 -6.02303e-014
Spine  -1.52793 -2.82727 6.01351
Spine1  7.44411 -2.97327 0.135689
HEad  9.9022 50.3845 -10.7326
LeftShoulder1  1.15068 -0.842409 -21.6298
LeftArm  -2.43701 -3.48351 -60.2708
LeftForeArm  36.3127 -2.1031 -11.8031
LeftHand  0.0438734 6.59816 6.83562
RightShoulder  0.896677 -0.524863 26.0584
RightArm  -28.3637 -16.4109 38.2621
RightForeArm  57.5905 8.10717 4.63511
RightHand  0.148916 -6.30905 -20.1583
LeftUpLeg  -18.0798 0.209886 2.84745
LeftLeg  60.3917 2.26631 4.90681
LeftFoot  -12.595 0.0181308 -5.23545
LeftToes  -1.90334e-010 -8.83595e-011 4.99953e-011
1581
root  -63.0923 38.4673 -36.0176 3.88947 -31.6349 -1.40167
RightUpLeg  -17.3695 -2.88497 -7.72697
RightLeg  25.8138 1.96878 0.810534
RightFoot  -8.40889 -0.328416 10.5623
RightToes  -1.11029e-010 1.2921e-014 -6.02303e-014
Spine  -1.05927 -2.30838 6.29464
Spine1  6.8521 -2.26966 -0.573699
HEad  9.08544 49.6235 -10.7696
LeftShoulder1  1.08458 -0.625861 -21.4652
LeftArm  -3.53226 -2.51276 -59.6923
LeftForeArm  34.1236 -1.69225 -11.6016
LeftHand  0.00812267 6.0147 6.24154
RightShoulder  1.02858 -0.0525898 25.4454
RightArm  -24.5777 -14.8784 37.1837
RightForeArm  54.9021 11.4999 5.71908
RightHand  0.151836 -6.37398 -19.3136
LeftUpLeg  -20.9173 3.84874 2.64437
LeftLeg  56.7362 2.19161 4.12808
LeftFoot  -12.4102 0.0212466 -5.68624
LeftToes  -1.90334e-010 -8.83595e-011 4.99953e-011
1582
root  -63.5273 38.7343 -35.5717 3.8985 -28.5588 -0.68689
RightUpLeg  -14.9409 -5.23649 -8.13338
RightLeg  23.7164 1.26299 0.384864
RightFoot  -8.623 -0.310246 10.5696
RightToes  -1.11029e-010 1.2921e-014 -6.02303e-014
Spine  -1.08225 -2.00809 6.44388
Spine1  6.80781 -1.81771 -1.35402
HEad  8.07848 48.455 -10.9083
LeftShoulder1  1.02369 -0.424358 -21.3128
LeftArm  -3.56404 -1.84431 -58.5675
LeftForeArm  33.5805 -2.09139 -11.5814
LeftHand  -5.42726e-005 5.83586 6.37058
RightShoulder  1.125 0.306562 24.9739
RightArm  -21.1002 -13.2133 36.5275
RightForeArm  50.6886 14.4492 5.52535
RightHand  0.126582 -6.22216 -19.2991
LeftUpLeg  -23.2922 7.34298 2.2123
LeftLeg  51.8547 2.77822 4.26098
LeftFoot  -12.3726 0.0220218 -5.78213
LeftToes  -1.90334e-010 -8.83595e-011 4.99953e-011
1583
root  -63.898 38.9268 -35.1105 4.03027 -24.9601 -0.0524902
RightUpLeg  -12.5825 -7.95228 -8.60285
RightLeg  21.8807 0.48445 -0.0052565
RightFoot  -9.00987 -0.282309 10.8243
RightToes  -1.11029e-010 1.2921e-014 -6.02303e-014
Spine  -1.17967 -1.84295 6.27282
Spine1  6.7056 -1.62661 -1.66322
HEad  7.4127 46.7704 -11.034
LeftShoulder1  0.990954 -0.326594 -21.1389
LeftArm  -3.59158 -1.59427 -57.5811
LeftForeArm  33.9704 -2.07055 -11.5677
LeftHand  0.00909746 5.99685 6.53096
RightShoulder  1.13273 0.413049 24.2578
RightArm  -21.6043 -11.656 36.4443
RightForeArm  48.4096 15.895 4.87514
RightHand  0.0476584 -5.72404 -20.1557
LeftUpLeg  -25.5681 9.63939 1.71038
LeftLeg  46.5782 4.05403 4.99808
LeftFoot  -10.7446 0.0920661 -5.31794
LeftToes  -1.90334e-010 -8.83595e-011 4.99953e-011
1584
root  -64.1917 39.0491 -34.6174 4.34363 -21.3621 0.272339
RightUpLeg  -10.3625 -10.2646 -8.87091
RightLeg  20.2865 -0.701741 -0.494332
RightFoot  -9.46309 -0.248174 11.1703
RightToes  -1.11029e-010 1.2921e-014 -6.02303e-014
Spine  -1.37859 -1.68363 6.377
Spine1  6.61744 -1.46279 -1.91304
HEad  6.70862 45.1101 -11.4287
LeftShoulder1  0.963686 -0.245552 -20.9834
LeftArm  -3.90507 -1.5375 -56.602
LeftForeArm  34.0158 -1.83058 -11.474
LeftHand  0.0076275 5.88022 6.34925
RightShoulder  1.15463 0.556745 23.6668
RightArm  -20.4195 -11.0196 36.1628
RightForeArm  44.1207 17.7374 4.34196
RightHand  0.0498397 -5.70786 -21.4471
LeftUpLeg  -27.64 11.5681 1.2772
LeftLeg  41.2652 6.78859 6.7263
LeftFoot  -8.9374 0.141104 -4.17058
LeftToes  -1.90334e-010 -8.83595e-011 4.99953e-011
1585
root  -64.4228 39.1322 -34.0785 4.65088 -18.0079 0.564758
RightUpLeg  -8.1458 -11.7155 -9.23199
RightLeg  18.7656 -2.43045 -0.982789
RightFoot  -9.89507 -0.216011 11.7298
RightToes  -1.11029e-010 1.2921e-014 -6.02303e-014
Spine  -1.95563 -1.51241 6.32451
Spine1  6.94521 -1.2821 -2.23139
HEad  6.25961 43.6289 -11.5496
LeftShoulder1  0.938719 -0.167677 -20.8652
LeftArm  -4.00027 -1.62337 -55.6903
LeftForeArm  32.8211 -1.59406 -11.473
LeftHand  0.00784562 5.98132 6.4599
RightShoulder  1.19169 0.707295 23.4664
RightArm  -18.0001 -10.9425 35.7677
RightForeArm  39.1611 19.8281 3.8275
RightHand  0.138942 -6.13897 -22.6631
LeftUpLeg  -29.0916 12.9306 0.859131
LeftLeg  35.4823 10.0039 7.93437
LeftFoot  -7.21815 0.175295 -3.66626
LeftToes  -1.90334e-010 -8.83595e-011 4.99953e-011
